<mxfile host="app.diagrams.net" modified="2024-02-07T18:28:16.368Z" agent="Mozilla/5.0 (Windows NT 10.0; Win64; x64) AppleWebKit/537.36 (KHTML, like Gecko) Chrome/121.0.0.0 Safari/537.36" etag="L3wag5LU8Y0Jqia8ymMf" version="23.1.1" type="google">
  <diagram name="Page-1" id="eg16amPM8piZ665MpAT3">
    <mxGraphModel grid="1" page="1" gridSize="10" guides="1" tooltips="1" connect="1" arrows="1" fold="1" pageScale="1" pageWidth="1654" pageHeight="1169" background="#D9F3F8" math="0" shadow="0">
      <root>
        <mxCell id="0" />
        <mxCell id="1" parent="0" />
        <mxCell id="ZEXJwoQCE3wYS87O9VtB-8" value="Controller" style="swimlane;whiteSpace=wrap;html=1;startSize=40;fontFamily=Poppins;align=center;fontSource=https%3A%2F%2Ffonts.googleapis.com%2Fcss%3Ffamily%3DPoppins;" vertex="1" parent="1">
          <mxGeometry x="530" y="250" width="160" height="140" as="geometry" />
        </mxCell>
        <mxCell id="ZEXJwoQCE3wYS87O9VtB-23" value="&lt;ul&gt;&lt;li style=&quot;&quot;&gt;HTTP request processing&lt;/li&gt;&lt;li style=&quot;&quot;&gt;Authentication&lt;/li&gt;&lt;li style=&quot;&quot;&gt;Database update requests&lt;/li&gt;&lt;/ul&gt;" style="text;html=1;strokeColor=none;fillColor=none;align=center;verticalAlign=middle;whiteSpace=wrap;rounded=0;fontFamily=Poppins;fontSource=https%3A%2F%2Ffonts.googleapis.com%2Fcss%3Ffamily%3DPoppins;" vertex="1" parent="ZEXJwoQCE3wYS87O9VtB-8">
          <mxGeometry y="25" width="140" height="130" as="geometry" />
        </mxCell>
        <mxCell id="ZEXJwoQCE3wYS87O9VtB-1" value="" style="ellipse;whiteSpace=wrap;html=1;container=1;fontFamily=Poppins;align=center;fontSource=https%3A%2F%2Ffonts.googleapis.com%2Fcss%3Ffamily%3DPoppins;" vertex="1" parent="1">
          <mxGeometry x="720" y="90" width="130" height="40" as="geometry" />
        </mxCell>
        <mxCell id="ZEXJwoQCE3wYS87O9VtB-6" value="Browser" style="text;html=1;strokeColor=none;fillColor=none;align=center;verticalAlign=middle;whiteSpace=wrap;rounded=0;fontFamily=Poppins;fontSource=https%3A%2F%2Ffonts.googleapis.com%2Fcss%3Ffamily%3DPoppins;" vertex="1" parent="ZEXJwoQCE3wYS87O9VtB-1">
          <mxGeometry x="15" y="8.75" width="100" height="22.5" as="geometry" />
        </mxCell>
        <mxCell id="ZEXJwoQCE3wYS87O9VtB-3" value="Model" style="swimlane;whiteSpace=wrap;html=1;startSize=40;fontFamily=Poppins;align=center;fontSource=https%3A%2F%2Ffonts.googleapis.com%2Fcss%3Ffamily%3DPoppins;" vertex="1" parent="1">
          <mxGeometry x="720" y="560" width="200" height="170" as="geometry" />
        </mxCell>
        <mxCell id="ZEXJwoQCE3wYS87O9VtB-28" value="&lt;ul data-darkreader-inline-border=&quot;&quot; style=&quot;border-color: var(--darkreader-border--border-color); --darkreader-inline-border: var(--darkreader-border--darkreader-border--border-color);&quot;&gt;&lt;li data-darkreader-inline-border=&quot;&quot; style=&quot;border-color: var(--darkreader-border--border-color); --darkreader-inline-border: var(--darkreader-border--darkreader-border--border-color);&quot;&gt;Derives conclusions from data using algorithms&lt;/li&gt;&lt;li data-darkreader-inline-border=&quot;&quot; style=&quot;border-color: var(--darkreader-border--border-color); --darkreader-inline-border: var(--darkreader-border--darkreader-border--border-color);&quot;&gt;Databases&lt;/li&gt;&lt;li data-darkreader-inline-border=&quot;&quot; style=&quot;border-color: var(--darkreader-border--border-color); --darkreader-inline-border: var(--darkreader-border--darkreader-border--border-color);&quot;&gt;Gets data from databases&lt;/li&gt;&lt;li data-darkreader-inline-border=&quot;&quot; style=&quot;border-color: var(--darkreader-border--border-color); --darkreader-inline-border: var(--darkreader-border--darkreader-border--border-color);&quot;&gt;Updates databases&lt;/li&gt;&lt;/ul&gt;" style="text;html=1;strokeColor=none;fillColor=none;align=center;verticalAlign=middle;whiteSpace=wrap;rounded=0;fontFamily=Poppins;fontSource=https%3A%2F%2Ffonts.googleapis.com%2Fcss%3Ffamily%3DPoppins;" vertex="1" parent="ZEXJwoQCE3wYS87O9VtB-3">
          <mxGeometry y="50" width="185" height="90" as="geometry" />
        </mxCell>
        <mxCell id="ZEXJwoQCE3wYS87O9VtB-9" value="View" style="swimlane;whiteSpace=wrap;html=1;startSize=40;fontFamily=Poppins;align=center;fontSource=https%3A%2F%2Ffonts.googleapis.com%2Fcss%3Ffamily%3DPoppins;" vertex="1" parent="1">
          <mxGeometry x="930" y="240" width="160" height="150" as="geometry" />
        </mxCell>
        <mxCell id="ZEXJwoQCE3wYS87O9VtB-26" value="&lt;ul&gt;&lt;li&gt;Dynamic Page Generation according to user&#39;s category&lt;/li&gt;&lt;li&gt;&lt;span style=&quot;&quot;&gt;Display results and requests placed&lt;/span&gt;&lt;/li&gt;&lt;/ul&gt;" style="text;html=1;strokeColor=none;fillColor=none;align=center;verticalAlign=middle;whiteSpace=wrap;rounded=0;fontFamily=Poppins;fontSource=https%3A%2F%2Ffonts.googleapis.com%2Fcss%3Ffamily%3DPoppins;" vertex="1" parent="ZEXJwoQCE3wYS87O9VtB-9">
          <mxGeometry x="-20" y="40" width="160" height="110" as="geometry" />
        </mxCell>
        <mxCell id="ZEXJwoQCE3wYS87O9VtB-10" value="" style="endArrow=classic;html=1;rounded=0;exitX=0;exitY=1;exitDx=0;exitDy=0;entryX=0.5;entryY=0;entryDx=0;entryDy=0;fontFamily=Poppins;align=center;fontSource=https%3A%2F%2Ffonts.googleapis.com%2Fcss%3Ffamily%3DPoppins;" edge="1" parent="1" source="ZEXJwoQCE3wYS87O9VtB-1" target="ZEXJwoQCE3wYS87O9VtB-8">
          <mxGeometry width="50" height="50" relative="1" as="geometry">
            <mxPoint x="870" y="450" as="sourcePoint" />
            <mxPoint x="550" y="210" as="targetPoint" />
          </mxGeometry>
        </mxCell>
        <mxCell id="ZEXJwoQCE3wYS87O9VtB-11" value="" style="endArrow=classic;html=1;rounded=0;exitX=0.5;exitY=0;exitDx=0;exitDy=0;entryX=1;entryY=1;entryDx=0;entryDy=0;fontFamily=Poppins;align=center;fontSource=https%3A%2F%2Ffonts.googleapis.com%2Fcss%3Ffamily%3DPoppins;" edge="1" parent="1" source="ZEXJwoQCE3wYS87O9VtB-9" target="ZEXJwoQCE3wYS87O9VtB-1">
          <mxGeometry width="50" height="50" relative="1" as="geometry">
            <mxPoint x="887" y="170" as="sourcePoint" />
            <mxPoint x="850" y="120" as="targetPoint" />
          </mxGeometry>
        </mxCell>
        <mxCell id="ZEXJwoQCE3wYS87O9VtB-12" value="" style="endArrow=classic;html=1;rounded=0;exitX=0.5;exitY=1;exitDx=0;exitDy=0;fontFamily=Poppins;align=center;fontSource=https%3A%2F%2Ffonts.googleapis.com%2Fcss%3Ffamily%3DPoppins;" edge="1" parent="1" source="ZEXJwoQCE3wYS87O9VtB-8">
          <mxGeometry width="50" height="50" relative="1" as="geometry">
            <mxPoint x="810" y="450" as="sourcePoint" />
            <mxPoint x="720" y="620" as="targetPoint" />
            <Array as="points">
              <mxPoint x="610" y="620" />
            </Array>
          </mxGeometry>
        </mxCell>
        <mxCell id="ZEXJwoQCE3wYS87O9VtB-13" value="&lt;font style=&quot;font-size: 12px;&quot;&gt;Update Requests&lt;/font&gt;" style="edgeLabel;html=1;align=center;verticalAlign=middle;resizable=0;points=[];labelBackgroundColor=none;fontFamily=Poppins;fontSource=https%3A%2F%2Ffonts.googleapis.com%2Fcss%3Ffamily%3DPoppins;" connectable="0" vertex="1" parent="ZEXJwoQCE3wYS87O9VtB-12">
          <mxGeometry x="-0.3842" relative="1" as="geometry">
            <mxPoint x="10" as="offset" />
          </mxGeometry>
        </mxCell>
        <mxCell id="ZEXJwoQCE3wYS87O9VtB-14" value="" style="endArrow=classic;html=1;rounded=0;fontFamily=Poppins;align=center;exitX=0.813;exitY=1.051;exitDx=0;exitDy=0;exitPerimeter=0;fontSource=https%3A%2F%2Ffonts.googleapis.com%2Fcss%3Ffamily%3DPoppins;" edge="1" parent="1" source="ZEXJwoQCE3wYS87O9VtB-26">
          <mxGeometry width="50" height="50" relative="1" as="geometry">
            <mxPoint x="1040" y="440" as="sourcePoint" />
            <mxPoint x="920" y="630" as="targetPoint" />
            <Array as="points">
              <mxPoint x="1040" y="630" />
            </Array>
          </mxGeometry>
        </mxCell>
        <mxCell id="ZEXJwoQCE3wYS87O9VtB-17" value="&lt;font style=&quot;font-size: 12px;&quot;&gt;Refresh&lt;/font&gt;&lt;br&gt;&lt;font style=&quot;font-size: 12px;&quot;&gt;Request&lt;/font&gt;" style="edgeLabel;html=1;align=center;verticalAlign=middle;resizable=0;points=[];labelBackgroundColor=none;fontFamily=Poppins;fontSource=https%3A%2F%2Ffonts.googleapis.com%2Fcss%3Ffamily%3DPoppins;" connectable="0" vertex="1" parent="ZEXJwoQCE3wYS87O9VtB-14">
          <mxGeometry x="-0.1449" y="-3" relative="1" as="geometry">
            <mxPoint x="33" y="-3" as="offset" />
          </mxGeometry>
        </mxCell>
        <mxCell id="ZEXJwoQCE3wYS87O9VtB-15" value="" style="endArrow=classic;html=1;rounded=0;fontFamily=Poppins;align=center;entryX=0.563;entryY=1.04;entryDx=0;entryDy=0;entryPerimeter=0;fontSource=https%3A%2F%2Ffonts.googleapis.com%2Fcss%3Ffamily%3DPoppins;" edge="1" parent="1" target="ZEXJwoQCE3wYS87O9VtB-26">
          <mxGeometry width="50" height="50" relative="1" as="geometry">
            <mxPoint x="920" y="600" as="sourcePoint" />
            <mxPoint x="1000" y="440" as="targetPoint" />
            <Array as="points">
              <mxPoint x="1000" y="600" />
            </Array>
          </mxGeometry>
        </mxCell>
        <mxCell id="ZEXJwoQCE3wYS87O9VtB-16" value="&lt;font style=&quot;font-size: 12px;&quot;&gt;Change View&lt;/font&gt;" style="edgeLabel;html=1;align=center;verticalAlign=middle;resizable=0;points=[];labelBackgroundColor=none;fontFamily=Poppins;fontSource=https%3A%2F%2Ffonts.googleapis.com%2Fcss%3Ffamily%3DPoppins;" connectable="0" vertex="1" parent="ZEXJwoQCE3wYS87O9VtB-15">
          <mxGeometry x="0.3761" y="3" relative="1" as="geometry">
            <mxPoint x="-7" y="-24" as="offset" />
          </mxGeometry>
        </mxCell>
        <mxCell id="ZEXJwoQCE3wYS87O9VtB-18" value="" style="endArrow=classic;html=1;rounded=0;exitX=1;exitY=0.25;exitDx=0;exitDy=0;fontFamily=Poppins;align=center;fontSource=https%3A%2F%2Ffonts.googleapis.com%2Fcss%3Ffamily%3DPoppins;" edge="1" parent="1" source="ZEXJwoQCE3wYS87O9VtB-8">
          <mxGeometry width="50" height="50" relative="1" as="geometry">
            <mxPoint x="780" y="460" as="sourcePoint" />
            <mxPoint x="920" y="285" as="targetPoint" />
          </mxGeometry>
        </mxCell>
        <mxCell id="ZEXJwoQCE3wYS87O9VtB-19" value="&lt;font size=&quot;3&quot;&gt;Form to Display&lt;/font&gt;" style="edgeLabel;html=1;align=center;verticalAlign=middle;resizable=0;points=[];labelBackgroundColor=none;fontFamily=Poppins;fontSource=https%3A%2F%2Ffonts.googleapis.com%2Fcss%3Ffamily%3DPoppins;" connectable="0" vertex="1" parent="ZEXJwoQCE3wYS87O9VtB-18">
          <mxGeometry x="-0.007" relative="1" as="geometry">
            <mxPoint x="-7" y="-10" as="offset" />
          </mxGeometry>
        </mxCell>
        <mxCell id="ZEXJwoQCE3wYS87O9VtB-20" value="" style="endArrow=classic;html=1;rounded=0;exitX=0;exitY=0.5;exitDx=0;exitDy=0;fontFamily=Poppins;align=center;fontSource=https%3A%2F%2Ffonts.googleapis.com%2Fcss%3Ffamily%3DPoppins;" edge="1" parent="1" source="ZEXJwoQCE3wYS87O9VtB-9">
          <mxGeometry width="50" height="50" relative="1" as="geometry">
            <mxPoint x="780" y="440" as="sourcePoint" />
            <mxPoint x="690" y="315" as="targetPoint" />
          </mxGeometry>
        </mxCell>
        <mxCell id="ZEXJwoQCE3wYS87O9VtB-21" value="&lt;font size=&quot;3&quot;&gt;User Events&lt;/font&gt;" style="edgeLabel;html=1;align=center;verticalAlign=middle;resizable=0;points=[];labelBackgroundColor=none;fontFamily=Poppins;fontSource=https%3A%2F%2Ffonts.googleapis.com%2Fcss%3Ffamily%3DPoppins;" connectable="0" vertex="1" parent="ZEXJwoQCE3wYS87O9VtB-20">
          <mxGeometry x="0.0417" y="2" relative="1" as="geometry">
            <mxPoint y="8" as="offset" />
          </mxGeometry>
        </mxCell>
      </root>
    </mxGraphModel>
  </diagram>
</mxfile>
